<svg width="16" height="16" viewBox="0 0 16 16" fill="none" xmlns="http://www.w3.org/2000/svg">
<g clip-path="url(#clip0_41_1130)">
<path d="M9.08484 -0.00734849C9.10999 -0.00765455 9.13514 -0.00796061 9.16106 -0.00827594C10.1676 -0.0179923 11.0963 0.108782 12.0312 0.500098C12.0518 0.508693 12.0724 0.517289 12.0936 0.526145C13.6657 1.19601 14.9042 2.53506 15.5584 4.09955C15.825 4.76427 16.0022 5.49694 16.0063 6.21543C16.0066 6.24101 16.0068 6.26659 16.007 6.29295C16.0076 6.37502 16.0078 6.45709 16.0078 6.53916C16.0078 6.58123 16.0078 6.58123 16.0079 6.62414C16.0074 7.03753 15.9954 7.43863 15.9062 7.84385C15.9009 7.86921 15.8955 7.89457 15.89 7.92071C15.7759 8.44864 15.6032 8.95411 15.375 9.44346C15.3628 9.46998 15.3506 9.49651 15.338 9.52383C15.2344 9.73888 15.1076 9.94679 14.918 10.0958C14.7158 10.152 14.5022 10.1535 14.3008 10.0938C14.1594 9.98612 14.0257 9.85841 13.9688 9.6876C13.9381 9.40622 13.9938 9.21593 14.127 8.9708C14.6921 7.85991 14.8747 6.52769 14.5625 5.3126C14.5566 5.28889 14.5508 5.26518 14.5448 5.24076C14.4605 4.90559 14.3372 4.59237 14.1875 4.28135C14.1725 4.24971 14.1725 4.24971 14.1573 4.21743C13.8258 3.52495 13.331 2.90178 12.7188 2.4376C12.686 2.41123 12.6533 2.38482 12.6206 2.35837C11.9098 1.79663 11.0715 1.49348 10.1875 1.34385C10.1588 1.33838 10.1301 1.33291 10.1005 1.32727C9.98663 1.31065 9.8746 1.30642 9.75977 1.30515C9.73691 1.30485 9.71406 1.30454 9.69052 1.30423C9.17715 1.2988 8.68772 1.30819 8.1875 1.4376C8.16384 1.44345 8.14018 1.4493 8.1158 1.45533C7.78057 1.53963 7.46733 1.66289 7.15625 1.8126C7.13516 1.82257 7.11406 1.83255 7.09233 1.84283C6.39985 2.17427 5.77668 2.66906 5.3125 3.28135C5.28613 3.31409 5.25972 3.3468 5.23328 3.37949C4.67154 4.09033 4.36838 4.92856 4.21875 5.8126C4.21328 5.8413 4.20781 5.87001 4.20217 5.89958C4.18555 6.01346 4.18132 6.12549 4.18005 6.24033C4.17975 6.26318 4.17944 6.28604 4.17913 6.30958C4.1737 6.82294 4.18309 7.31238 4.3125 7.8126C4.31835 7.83626 4.3242 7.85992 4.33023 7.8843C4.41453 8.21953 4.53779 8.53277 4.6875 8.84385C4.69748 8.86494 4.70745 8.88603 4.71773 8.90777C5.04917 9.60025 5.54396 10.2234 6.15625 10.6876C6.18899 10.714 6.22171 10.7404 6.25439 10.7668C6.96523 11.3286 7.80346 11.6317 8.6875 11.7813C8.71628 11.7868 8.74505 11.7923 8.7747 11.798C9.33921 11.8802 10.0089 11.8543 10.5625 11.7188C10.588 11.7128 10.6134 11.7068 10.6396 11.7005C11.1172 11.584 11.573 11.4074 12.0092 11.1809C12.1693 11.1001 12.3286 11.072 12.5063 11.1076C12.6882 11.1684 12.8182 11.2681 12.9336 11.422C12.9935 11.6083 13.005 11.8167 12.9482 12.006C12.8226 12.2485 12.5735 12.3834 12.3359 12.4942C12.3077 12.5075 12.2795 12.5207 12.2504 12.5343C11.4847 12.8821 10.6346 13.124 9.78906 13.1325C9.76382 13.1328 9.73858 13.1332 9.71258 13.1335C9.13977 13.139 8.59255 13.1273 8.03125 13.0001C8.00561 12.9946 7.97997 12.9891 7.95355 12.9834C7.03538 12.782 6.11837 12.3729 5.4043 11.7549C5.34689 11.7138 5.34689 11.7138 5.28369 11.7187C5.18786 11.765 5.12793 11.8335 5.05469 11.9103C4.96137 12.0076 4.86874 12.1003 4.7659 12.1875C4.59448 12.3368 4.43553 12.4984 4.27544 12.6596C4.24092 12.6942 4.2064 12.7289 4.17187 12.7635C4.09798 12.8376 4.02413 12.9117 3.95033 12.9859C3.83352 13.1033 3.71659 13.2205 3.59962 13.3377C3.2672 13.6709 2.93497 14.0042 2.60287 14.3377C2.41911 14.5223 2.23524 14.7067 2.05125 14.891C1.93503 15.0074 1.81895 15.1239 1.70298 15.2406C1.63079 15.3132 1.55847 15.3856 1.48611 15.458C1.45268 15.4915 1.41929 15.525 1.38597 15.5587C1.34035 15.6047 1.29454 15.6505 1.24868 15.6962C1.21036 15.7347 1.21036 15.7347 1.17127 15.7739C0.962055 15.9626 0.804899 16.0098 0.529541 16.0068C0.370354 15.9952 0.284325 15.9359 0.166016 15.8341C0.0106488 15.6535 -0.0106336 15.514 -0.0124512 15.2813C0.0109477 15.1052 0.102126 14.98 0.220581 14.852C0.245471 14.8251 0.270361 14.7982 0.296005 14.7705C0.425265 14.6348 0.556631 14.5015 0.689453 14.3692C0.715899 14.3427 0.742345 14.3161 0.769592 14.2887C0.795716 14.2627 0.82184 14.2366 0.848755 14.2097C0.87184 14.1866 0.894924 14.1636 0.918709 14.1398C0.981519 14.0802 1.04496 14.0238 1.11074 13.9675C1.26708 13.831 1.41308 13.6849 1.55951 13.5379C1.58971 13.5077 1.61992 13.4775 1.65014 13.4473C1.73141 13.366 1.81259 13.2846 1.89376 13.2033C1.97886 13.118 2.06406 13.0327 2.14925 12.9475C2.31023 12.7864 2.47112 12.6253 2.63199 12.4641C2.81527 12.2805 2.99865 12.0969 3.18203 11.9134C3.55895 11.5361 3.93576 11.1588 4.3125 10.7813C4.25964 10.6395 4.18371 10.5311 4.0918 10.4122C3.92569 10.1912 3.78662 9.96245 3.65767 9.71812C3.6263 9.6588 3.59413 9.59997 3.56189 9.54111C3.24756 8.9543 3.047 8.31152 2.9375 7.65635C2.93175 7.62195 2.926 7.58755 2.92007 7.55211C2.87139 7.22891 2.86251 6.91042 2.86328 6.58408C2.8633 6.55675 2.86332 6.52941 2.86333 6.50125C2.86584 5.61868 3.03381 4.78407 3.375 3.96885C3.3836 3.94827 3.39219 3.92769 3.40105 3.90649C4.07092 2.33439 5.40996 1.0959 6.97446 0.441657C7.63781 0.175627 8.36799 -6.62066e-05 9.08484 -0.00734849Z" fill="#0B0F12"/>
</g>
<defs>
<clipPath id="clip0_41_1130">
<rect width="16" height="16" fill="white"/>
</clipPath>
</defs>
</svg>
